<svg xmlns="http://www.w3.org/2000/svg" width="256" height="256"><path fill-opacity=".016" d="M0 128.004v128.004l128.25-.254 128.25-.254.254-127.75L257.008 0H0v128.004m.485.496c0 70.4.119 99.053.265 63.672.146-35.38.146-92.98 0-128C.604 29.153.485 58.1.485 128.5" fill="#1976D2" fill-rule="evenodd"/><path fill-opacity=".446" d="M85.262 2.924c-14.511 8.001-28.008 21.764-35.159 35.853-2.131 4.199-2.166 4.97-1.887 42.5L48.5 119.5l4.999 11.499c5.103 11.737 7.671 15.534 9.923 14.669 1.778-.682 6.058 8.252 4.635 9.675-.582.582-1.057 1.679-1.057 2.439 0 1.763 10.328 19.792 18.618 32.503 3.51 5.381 6.382 9.954 6.382 10.161 0 .207-3.829 1.595-8.509 3.085-14.114 4.495-24.91 12.035-28.591 19.969-2.516 5.422-2.365 9.175.61 15.144 2.823 5.666 7.957 10.213 16.32 14.455l5.67 2.876 25-.136c19.798-.107 22.919-.287 15-.863-25.032-1.82-43.772-8-52.054-17.167-6.975-7.721-3.449-14.77 10.912-21.812 4.478-2.196 11.215-4.781 14.971-5.745 6.71-1.721 6.855-1.717 8.277.248 5.455 7.542 13.778 16.492 18.754 20.17 6.599 4.876 9.702 5.364 15.43 2.428 3.662-1.877 14.881-12.924 20.81-20.49l3.049-3.892 5.197 1.247c5.901 1.416 8.154.459 8.154-3.463 0-2.638-1.436-3.97-5.265-4.885l-2.765-.661 4.852-7.227c12.654-18.846 29.184-49.751 36.56-68.351l3.618-9.124V42.416l-4.923-7.958c-8.325-13.46-17.497-22.447-31.518-30.883L165.618 0l-37.559.018L90.5.036l-5.238 2.888m101.393 210.905c-2.435 2.69-2.077 3.995 2.244 8.189 2.144 2.081 4.198 5.145 4.563 6.81 2.601 11.84-22.189 23.724-54.462 26.107-8.858.654-6.613.798 14.354.92l24.854.145 6.931-3.642c8.242-4.331 15.155-11.535 16.624-17.322 1.775-6.995-1.113-14.706-7.47-19.946-4.349-3.585-5.381-3.755-7.638-1.261" fill="#1976D2" fill-rule="evenodd"/><path fill-opacity=".259" d="M81.958 5.199c-10.809 6.644-22.115 17.95-28.759 28.759L48 42.416l.127 17.042c.102 13.729.286 15.816.945 10.735 4.707-36.254 32.833-64.427 68.989-69.106 5.28-.683 3.372-.856-10.603-.96L90.416 0l-8.458 5.199M134.5.656c13.432 1.595 27.927 6.518 32.852 11.157 3.81 3.59 10.819 13.508 13.912 19.687 3.619 7.229 7.41 19.991 8.17 27.5l.657 6.5-2.429-6.694C184.025 48.785 181.398 45 178.079 45c-3.581 0-9.272-5.904-7.956-8.254 1.35-2.414.111-4.404-5.146-8.263-10.712-7.863-23.503-11.901-37.477-11.83-17.645.089-31.063 5.816-44.047 18.8C70.159 48.748 64.65 62.017 64.753 80.5c.072 12.936 3.233 23.321 10.326 33.926 6.473 9.679 14.424 16.719 24.421 21.627 10.297 5.054 17.938 6.947 28.05 6.947 15.139 0 28.764-4.971 41.198-15.032l6.119-4.951-3.052 6.741c-12.48 27.567-39.21 68.808-53.304 82.242l-3.672 3.5-3.423-4c-8.15-9.525-25.63-36.222-35.619-54.4-2.021-3.676-6.105-4.261-7.789-1.114-.823 1.537-.602 2.889.98 5.991 3.036 5.951 13.644 23.504 19.212 31.789 3.315 4.933 4.468 7.405 3.591 7.7-.71.24-3.316.951-5.791 1.581-6.914 1.76-18.823 7.567-23.679 11.546-7.891 6.466-10.853 16.61-7.016 24.03 2.381 4.604 10.143 11.201 16.994 14.442l6.201 2.933 19.5-.149c10.725-.082 18.15-.309 16.5-.505-29.439-3.501-47.051-10.556-51.91-20.797-1.456-3.067-1.483-3.867-.23-6.866.78-1.867 2.706-4.631 4.279-6.143 3.747-3.599 15.031-8.954 24.061-11.418l7.2-1.965 5.654 6.912c8.05 9.838 16.83 17.668 21.322 19.014 3.226.966 4.431.867 7.572-.623 5.027-2.386 12.871-9.738 19.542-18.316 4.877-6.27 5.771-6.982 8-6.367 1.381.381 4.31.7 6.51.709 3.781.015 4-.148 4-2.984 0-2.539-.537-3.179-3.5-4.168-1.925-.642-3.402-1.613-3.281-2.156.12-.544 3.092-5.418 6.605-10.832 13.341-20.562 25.904-44.445 34.081-64.788l3.595-8.945V79.772c0-35.821-.001-35.841-2.393-40.555-7.389-14.562-22.431-29.507-37.317-37.076-3.836-1.95-5.66-2.128-20.5-1.991-8.96.082-14.94.31-13.29.506M119 25.69C97.326 29.314 79.07 46.882 74.511 68.5c-2.768 13.125-1.135 24.703 5.184 36.757 4.456 8.5 13.871 18.422 20.346 21.442 8.247 3.846 24.206.702 38.327-7.55l6.302-3.682-6.085-.229c-11.58-.436-14.109-.408-19.585.217-4.641.531-6.12.268-9.47-1.678-5.636-3.275-8.53-7.978-8.53-13.86 0-6.726 1.209-9.235 7.756-16.103 7.257-7.611 12.039-10.13 19.244-10.134 6.98-.004 10.856 1.999 17.777 9.187 7.369 7.654 8.338 9.289 9.081 15.333l.642 5.222 3.137-5.961c4.917-9.345 4.988-10.061.997-10.061-10.657 0-13.778-13.813-4.992-22.098 1.879-1.772 4.978-3.515 6.887-3.873 2.687-.504 3.466-1.135 3.45-2.79-.033-3.355-4.598-15.466-7.46-19.79-1.427-2.156-2.282-4.423-1.902-5.039.407-.658.242-.841-.401-.443-.601.371-1.458.052-1.905-.71-2.912-4.973-22.478-8.945-34.311-6.967m-10.81 18.293c-7.512 4.677-8.233 16.145-1.461 23.244 3.833 4.018 8.272 5.217 12.607 3.406 7.09-2.962 9.552-11.759 5.479-19.574-4.127-7.919-10.746-10.736-16.625-7.076m29.017-.314c-1.857.915-4.418 3.542-5.871 6.02-2.163 3.691-2.503 5.284-2.118 9.923 1.47 17.726 23.854 14.562 24.071-3.403.074-6.152-2.503-10.983-6.823-12.788-4.267-1.782-5.19-1.758-9.259.248m-25.54 7.998c-1.346 1.345-.615 7.176 1.177 9.389 2.557 3.157 5.156 1.997 5.156-2.302 0-5.126-3.914-9.506-6.333-7.087m28.01 1.137c-2.224 2.457-2.245 9.041-.032 9.89 2.958 1.135 6.658-6.404 4.681-9.539-1.455-2.306-2.788-2.407-4.649-.351m-51.418 9.661c-9.107 4.022-7.244 18.842 3 23.865 10.351 5.076 19.296-7.341 12.491-17.34-4.467-6.564-10.065-8.922-15.491-6.525M91 72.277C91 75.116 93.632 79 95.557 79c2.376 0 2.19-4.462-.302-7.25-2.182-2.44-4.255-2.183-4.255.527m69.637-.771c-2.05 2.049-3.039 5.492-1.904 6.627 1.475 1.475 3.977-.018 5.272-3.144 1.818-4.389-.286-6.565-3.368-3.483m20.442 3.077c.048 1.165.285 1.402.604.605.289-.722.253-1.585-.079-1.917-.332-.332-.568.258-.525 1.312M48.15 99.2L48 116.899l4.913 11.593c6.377 15.048 7.489 16.712 10.9 16.318 4.028-.465 3.875-3.519-.686-13.646-7.168-15.919-12.943-34.567-14.453-46.664-.206-1.65-.442 4.965-.524 14.7m74.35-15.855c-3.846 1.758-12.231 10.734-13.041 13.961-.863 3.442 1.959 8.51 5.191 9.321 1.437.361 4.82.146 7.517-.476 3.697-.854 6.613-.839 11.843.057 6.721 1.153 7.016 1.116 9.464-1.183 1.795-1.687 2.526-3.416 2.526-5.978 0-3.101-.889-4.485-6.353-9.901-7.019-6.957-11.386-8.434-17.147-5.801m45.905.905L166.5 86.5l2.25-1.905c1.238-1.048 2.25-2.06 2.25-2.25 0-.8-.805-.209-2.595 1.905m12.753.75c0 1.375.227 1.938.504 1.25.278-.687.278-1.812 0-2.5-.277-.687-.504-.125-.504 1.25m-31.286 26.75c-1.243 1.586-1.208 1.621.378.378.963-.755 1.75-1.543 1.75-1.75 0-.823-.821-.294-2.128 1.372m15.565 6.5l-2.937 3.25 3.25-2.937c1.787-1.615 3.25-3.078 3.25-3.25 0-.773-.825-.092-3.563 2.937m-43.687 15.412c.688.278 1.813.278 2.5 0 .688-.277.125-.504-1.25-.504s-1.937.227-1.25.504m10 0c.688.278 1.813.278 2.5 0 .688-.277.125-.504-1.25-.504s-1.937.227-1.25.504m54.274 81.292c-.876 1.638-.315 2.778 3.465 7.034 6.007 6.763 6.125 10.306.546 16.358-7.042 7.64-24.815 14.329-43.88 16.515-6.615.758-5.045.895 11.566 1.008 18.235.124 19.493.009 24.5-2.244 19.992-8.997 25.684-24.88 13.245-36.961-4.184-4.063-7.829-4.723-9.442-1.71" fill="#1976D2" fill-rule="evenodd"/><path fill-opacity=".981" d="M86.5 2.796C70.869 11.423 57.753 24.739 50.141 39.71c-1.902 3.741-2.128 5.747-2.024 18 .097 11.497.263 12.915.993 8.528C54.386 34.572 79.76 8.474 112 1.554l6.5-1.395L105 .098C92.079.039 91.286.155 86.5 2.796m55-1.714c14.193 2.406 29.18 9.945 40.125 20.184 14.539 13.601 23.342 30.97 25.344 50.007.627 5.969.783 4.306.895-9.556.132-16.276.056-16.941-2.499-22-7.51-14.871-20.251-28.019-35.446-36.574-5.553-3.127-5.649-3.142-19.5-3.026-11.154.094-12.926.285-8.919.965m-29.284 17.937C79.483 27.595 59.455 60.162 66.49 93.371c4.631 21.858 23.412 41.327 45.51 47.18 7.837 2.076 22.367 2.342 30 .55 10.654-2.501 21.822-8.849 30.02-17.065 19.169-19.209 24.035-45.901 12.808-70.258-3.559-7.722-4.924-9.2-7.688-8.323-3.203 1.017-3.22 3.149-.081 9.858 3.33 7.115 5.906 17.885 5.906 24.687 0 19.448-12.658 39.817-30.07 48.388-14.393 7.084-28.915 8.136-43.238 3.131-17.129-5.985-30.579-20.603-35.168-38.222-1.892-7.263-1.893-20.188-.004-27.289 5.064-19.028 20.509-34.463 39.56-39.533 7.315-1.946 21.232-1.878 28.023.137 6.779 2.011 14.321 5.774 19.076 9.519 3.963 3.12 5.803 3.522 7.656 1.669 3.374-3.374-1.449-8.559-13.315-14.312-13.606-6.597-29.057-8.193-43.269-4.469M107.888 44.5c-7.507 4.08-6.536 19.695 1.532 24.614 8.278 5.048 16.58-.269 16.58-10.617 0-11.533-9.351-18.759-18.112-13.997m26.612 1.8c-6.356 6.356-7.041 16.313-1.503 21.85C140.486 75.64 153 67.715 153 55.482 153 48.169 148.311 43 141.677 43c-3.053 0-4.578.701-7.177 3.3m-24.116 7.306c-.901 3.592 1.953 9.394 4.621 9.394 3.225 0 4.467-3.935 2.63-8.332-1.193-2.855-2.094-3.668-4.065-3.668-1.894 0-2.697.656-3.186 2.606m28.213-.44c-4.185 5.975.139 13.099 4.814 7.932 2.55-2.818 1.833-9.492-1.064-9.905-1.35-.192-2.75.544-3.75 1.973M85.803 65.043c-2.783 2.783-3.006 3.495-2.606 8.32C83.882 81.618 89.112 87 96.45 87c7.57 0 11.377-8.082 7.71-16.371-3.791-8.57-12.671-11.272-18.357-5.586m70.238-.424c-6.785 5.709-8.177 14.398-3.118 19.458C160.378 91.532 173 83.923 173 71.973c0-8.883-9.993-13.216-16.959-7.354m-65.709 6.959c-.804 2.095 2.811 6.839 5.518 7.242 1.68.249 2.15-.194 2.15-2.028 0-5.103-6.115-9.261-7.668-5.214m69.323.251c-1.821 2.012-2.226 6.7-.663 7.666 1.577.975 6.008-4.15 6.008-6.95 0-3.087-2.853-3.47-5.345-.716M119.5 75.887c-5.923 2.73-17.173 14.855-18.032 19.434-1.111 5.922.304 10.687 4.387 14.77 4.749 4.749 9.764 6.193 16.281 4.688 3.596-.83 6.458-.836 10.832-.022 7.493 1.393 12.281.194 16.645-4.17 4.203-4.203 5.846-10.17 4.34-15.763-1.388-5.152-11.618-16.253-17.453-18.939-5.106-2.35-11.898-2.349-17 .002m87.725 8.735c-1.333 24.447-29.545 83.71-57.068 119.878-6.174 8.114-17.045 19.379-20.365 21.102-2.579 1.339-2.956 1.203-7.927-2.849-9.868-8.044-28.357-33.295-41.371-56.503-3.142-5.602-6.376-10.737-7.187-11.41-1.877-1.558-4.681.026-5.11 2.885-.335 2.235 7.293 15.988 18.06 32.56 3.853 5.932 6.834 10.913 6.625 11.069-.21.156-3.307 1.066-6.882 2.022-14.131 3.777-27.399 12.548-30.611 20.236-3.156 7.553-.785 16.199 6.1 22.244 1.984 1.742 6.724 4.737 10.534 6.656L78.95 256l16.775-.15c9.226-.082 15.425-.325 13.775-.539-13.605-1.763-29.309-6.407-37.208-11.004-5.004-2.911-10.017-8.364-10.891-11.845-1.864-7.427 8.044-15.988 24.599-21.254 12.161-3.869 12.071-3.878 16.117 1.514 13.844 18.448 24.048 24.567 32.383 19.417 3.895-2.407 12.532-11.105 18.299-18.429 4.255-5.404 4.764-5.741 7.63-5.054 5.347 1.282 8.758.95 9.947-.969.92-1.483.695-2.164-1.237-3.75-1.298-1.065-3.211-1.937-4.25-1.937-2.808 0-2.374-1.368 2.948-9.295 12.635-18.819 27.384-46.385 35.761-66.836l4.449-10.864-.299-17.252c-.164-9.489-.4-15.398-.523-13.131m-91.397 4.206C109.931 94.724 109 96.144 109 99.239c0 2.802.696 4.169 3.195 6.271 2.725 2.294 3.716 2.575 6.75 1.915 3.477-.757 10.947-.861 19.161-.267 3.484.252 4.485-.143 6.603-2.606 4.005-4.656 2.75-8.691-5.069-16.302-6.233-6.067-6.575-6.25-11.703-6.25-5.193 0-5.396.114-12.109 6.828m-67.746 12.527L48 116.209l5.082 12.146c2.794 6.68 5.73 13.157 6.523 14.395 1.667 2.602 4.587 2.928 6.422.717 1.059-1.276.418-3.502-3.821-13.275-6.003-13.839-10.497-26.969-12.559-36.692l-1.484-7-.081 14.855m138.585 112.312c-1.524 1.523-.537 5.372 1.763 6.879 3.133 2.053 6.431 8.729 5.84 11.822-1.752 9.167-19.882 18.513-42.77 22.048l-9 1.39 17 .087c16.15.083 17.27-.038 22.395-2.424 8.913-4.149 14.687-8.99 17.531-14.696 2.964-5.948 3.202-9.33 1.025-14.555-2.978-7.15-11.026-13.31-13.784-10.551" fill="#1976D2" fill-rule="evenodd"/></svg>